<svg xmlns="http://www.w3.org/2000/svg" xmlns:xlink="http://www.w3.org/1999/xlink" width="332" height="35" viewBox="0 0 332 35"><defs><path id="3ggwb" d="M439.28 3815.15v-.8c1.01-.06 1.8-.15 1.8-.97 0-.3-.1-.61-.18-.88l-.44-1.52h-5.25l-.46 1.28c-.1.32-.19.62-.19.93 0 1.06 1.12 1.12 2.02 1.16v.8h-6.13v-.8c1.56-.06 2.07-.38 2.63-1.94l4.03-11.04-.23-.36c1.73-.57 2.21-.82 2.95-1.37l.67 2.2 3.3 10.1c.58 1.8.86 2.24 2.44 2.41v.8h-6.96zm-1.33-11.94l-2.19 6.17h4.28z"/><path id="3ggwc" d="M391.77 3811.85c-.67 1.07-2.25 3.7-6.35 3.7-4.49 0-7.39-3.3-7.39-7.64 0-4.03 2.46-7.99 7.49-7.99 2.64 0 4.04 1.12 4.9 1.8l1.02-.94.08 4.51-.66.13a6.29 6.29 0 0 0-1.6-2.61 4.44 4.44 0 0 0-3.12-1.46c-2.68 0-4.8 2.2-4.8 6.05 0 3.27 1.74 6.35 5.18 6.35 2.6 0 3.58-1.46 4.36-2.57l.89.67"/><path id="3ggwd" d="M392.86 3815.16v-.8c1.69-.15 1.7-.5 1.7-1.94.03-.53.03-1.05.03-1.58v-6.24c0-.97 0-1.94-.06-2.4-.09-.89-.51-1.01-1.67-1.12v-.8h6.37v.8c-1.24.13-1.7.17-1.85 1-.11.48-.13 1.57-.13 2.46v2.05a62.72 62.72 0 0 0 6.96 0v-2.5c-.03-2.71-.05-2.82-2.07-3v-.81h6.45v.8c-1.73.21-1.73.23-1.73 3.06v6.28c0 .59.02 2.46.09 2.9.1.78.55.93 1.64 1.04v.8h-6.45v-.8c1.5-.17 1.9-.21 2.02-1.24.05-.43.05-1 .05-2.07v-2.73c-1.18-.04-2.17-.1-3.39-.1-1.28 0-2.29.04-3.57.1v2.73c.02 3.1.06 3.1 1.98 3.31v.8h-6.37"/><path id="3ggwe" d="M409.82 3815.16v-.8c1.45-.2 1.75-.36 1.77-1.92v-7.92c-.02-3.1-.02-3.19-1.77-3.44v-.8H416v.8c-1.75.17-1.75.25-1.75 3.44v6c0 .53.03 2.2.07 2.64.1.9.52 1.12 1.68 1.2v.8h-6.18"/><path id="3ggwf" d="M371.64 3815.16v-.8c1.45-.2 1.75-.36 1.77-1.92v-7.92c-.02-3.1-.02-3.19-1.77-3.44v-.8h6.18v.8c-1.75.17-1.75.25-1.75 3.44v6c0 .53.02 2.2.06 2.64.1.9.53 1.12 1.69 1.2v.8h-6.18"/><path id="3ggwg" d="M363.67 3815.16v-.8c1.88-.13 1.88-.21 1.9-2.97v-7.49l-5.2 11.45h-1.32l-4.77-11.6-.12 8.75c0 1.46.17 1.73 1.75 1.86v.8h-5.16v-.8c1.2-.06 1.67-.23 1.75-1.24.04-.4.1-1.65.13-2.47l.2-6.24c.03-.48.03-1.2.03-1.73 0-1.47-.3-1.58-1.62-1.6v-.8h4.67l4.64 11.3 5.1-11.3h4.53v.89c-1.77.1-1.79.3-1.77 2.61v6.13c0 1.01.02 2.28.09 3.04.08 1.1.5 1.3 1.68 1.41v.8h-6.51"/><path id="3ggwh" d="M445.8 3815.16v-.8c1.22-.06 1.69-.08 1.85-.93.22-.99.28-9.82.3-11.36-.82-.76-1.16-.9-2.15-.99v-.8h4.47c1.24 1.77 1.52 2.17 3.7 4.89l4.16 5.14v-6.66c-.02-2.36-.08-2.48-2.45-2.57v-.8h5.86v.8c-1.62.02-1.77.36-1.79 2.78l-.2 11.49h-.9l-1.32-1.66c-.68-.85-1.35-1.7-2.03-2.51l-5.87-7.26v7.72c0 2.4.16 2.49 2.44 2.72v.8h-6.07"/><path id="3ggwi" d="M332.88 3807.7c0 5.14-3.5 7.84-7.44 7.84-4.33 0-7.71-3.12-7.71-7.87 0-4.06 2.72-7.73 7.5-7.71 4.51.02 7.65 3.22 7.65 7.74zm-7.42 6.45c.84-.02 2.03-.43 2.95-1.83 1.05-1.62 1.27-3.1 1.2-5.03-.05-1.92-.59-3.57-1.68-4.74a3.62 3.62 0 0 0-2.67-1.22c-1.24 0-2.16.78-2.62 1.3-1.06 1.2-1.55 2.87-1.55 4.79 0 1.93.26 3.4 1.37 4.99.96 1.37 2.16 1.74 3 1.74z"/><path id="3ggwj" d="M334.75 3812.42c.02-.36.04-2.15.04-2.55v-5.23c0-.59-.02-2.23-.12-2.7-.15-.69-.61-.75-1.69-.86v-.8h10.92l.23 3.65h-.74c-.39-2.33-1.33-2.32-4.23-2.32-.95 0-1.25.02-1.77.08v5.16h1.95c1.82 0 2.26-.16 2.34-1.76h.72v4.9h-.72c-.1-1.66-.99-1.82-2.65-1.82h-1.65v4.25c.03 1.62.22 1.77 1.76 1.92v.82h-6.16v-.82c1.54-.15 1.73-.3 1.77-1.92"/><path id="3ggwk" d="M216.24 3815.15v-.8c1.45-.19 1.75-.36 1.77-1.92v-7.92c-.02-3.1-.02-3.19-1.77-3.44v-.8h6.18v.8c-1.75.17-1.75.25-1.75 3.44v6c0 .53.02 2.2.07 2.64.1.9.52 1.12 1.68 1.2v.8h-6.18"/><path id="3ggwl" d="M274.79 3815.15v-.8c1.45-.19 1.75-.36 1.77-1.92v-7.92c-.02-3.1-.02-3.19-1.77-3.44v-.8h6.18v.8c-1.75.17-1.75.25-1.75 3.44v6c0 .53.02 2.2.06 2.64.1.9.53 1.12 1.69 1.2v.8h-6.18"/><path id="3ggwm" d="M199.53 3815.15v-.8c1.22-.06 1.69-.08 1.85-.93.21-.99.28-9.82.3-11.36-.82-.76-1.16-.9-2.15-.99v-.8H204c1.24 1.77 1.52 2.17 3.7 4.89l4.16 5.15v-6.67c-.02-2.36-.08-2.48-2.45-2.57v-.8h5.86v.8c-1.62.02-1.77.36-1.79 2.78l-.2 11.5h-.9l-1.32-1.67c-.68-.85-1.35-1.69-2.03-2.51l-5.88-7.26v7.72c0 2.4.17 2.49 2.45 2.72v.8h-6.07"/><path id="3ggwn" d="M263.88 3810.52l.76-.08c.82 2.42 2.19 3.73 4.42 3.73 1.58 0 2.98-.68 2.98-2.28 0-1.69-1.63-2.36-2.34-2.66-.6-.23-1.23-.42-1.82-.65-1.22-.44-3.52-1.4-3.52-4.28 0-2.78 2.2-4.34 4.75-4.34.99 0 2.15.21 3.41 1.01l.9-.65.5 4.43-.75.14a5.18 5.18 0 0 0-1.03-2.2 3.51 3.51 0 0 0-2.9-1.36c-1.59 0-2.52.76-2.52 1.94 0 1.77 1.75 2.36 3.42 2.9.84.28 1.54.51 2.15.87 1.18.7 2.15 2 2.15 3.8 0 2.57-2.1 4.7-5.25 4.7-2.02 0-3.27-.8-3.86-1.18l-1.24-.91-.21-2.93"/><path id="3ggwo" d="M285.56 3815.15v-.63c1.38-.02 1.75-.53 1.75-1.7v-10.97h-1.85c-1.69 0-2.8-.06-2.93 2.6h-.78l.13-4.18h13.53l.12 4.17h-.78c-.12-2.65-1.24-2.59-2.93-2.59h-1.85v10.96c0 1.18.38 1.69 1.75 1.71v.63h-6.16"/><path id="3ggwp" d="M189.55 3800.27v.8c-1.98.15-1.98.21-2 3.37v3.5c0 1.81.03 3.37 1 4.77.75 1.1 2.05 1.25 2.7 1.25 2.13 0 3.3-1.1 3.8-2.86.42-1.39.45-4 .45-5.73 0-.55 0-2.32-.03-2.8-.08-1.35-.78-1.4-2.1-1.5v-.8h5.67v.8c-1.4-.02-1.69.3-1.77 1.77-.03.36-.2 4.5-.21 5.12-.05 1.14-.1 2.26-.36 3.33-1.01 4-4.91 4.22-5.95 4.22-.82 0-2.5-.13-3.9-1.05-2.2-1.5-2.23-3.74-2.23-6.14v-3.37c-.02-1.6-.02-2.32-.06-2.7-.13-.93-.6-1.12-1.71-1.18v-.8h6.7"/><path id="3ggwq" d="M238.08 3800.27v.8c-1.43.21-1.62.61-2.85 3.56l-4.53 10.82h-.8l-4.07-10.98c-1-2.83-1.13-3.17-2.63-3.4v-.8h7.06v.8c-1.2.04-1.98.09-1.98.95 0 .42.1.78.5 2.02l2.6 7.57 3.03-7.82c.2-.53.44-1.2.44-1.58 0-1.08-1.05-1.12-1.98-1.14v-.8h5.21"/><path id="3ggwr" d="M300.26 3815.16v-.8c1.16-.13 1.6-.17 1.9-.46.33-.34.33-.72.35-2.34v-2.62l-3.96-6.13c-1.08-1.6-1.1-1.64-2.53-1.73v-.82h7.76v.82c-1.56.04-2.26.09-2.26.8 0 .4.28.87.65 1.5l2.28 3.73 2.1-3.71c.39-.74.6-1.18.6-1.52 0-.71-.61-.74-1.65-.8v-.82h5.82v.82c-1.5.04-1.94.49-3.64 3.27l-2.32 3.88v3.1c0 2.7.02 2.9 2.23 3.03v.8h-7.33"/><path id="3ggws" d="M238.09 3815.15v-.82c1.54-.15 1.73-.3 1.77-1.92.02-.36.04-2.15.04-2.55v-5.23c0-.59-.02-2.23-.12-2.7-.15-.7-.61-.76-1.69-.86v-.8h10.6l.09 3.54h-.68c-.34-2.02-1.24-2.21-3.77-2.21h-1.84v5.24h1.63c1.92 0 2.19-.44 2.34-1.76h.71v4.9h-.71c0-1.66-.53-1.81-2.36-1.81h-1.6v4.16c0 .97.4 1.5 2.38 1.5 2.15 0 3.64.12 4.15-2.53h.71a38.04 38.04 0 0 0-.31 3.85h-11.34"/><path id="3ggwt" d="M431.11 3808.57v.8c-1.35.09-1.35.47-1.38 3.3v1.11c-1.16.72-2.81 1.75-5.73 1.75-5.12 0-7.57-3.88-7.57-7.78 0-4.76 3.23-7.86 7.27-7.86 2.54 0 4 .95 5.21 1.69l.78-.89.11 4.66-.6.1a7.4 7.4 0 0 0-1.88-3.02 4.1 4.1 0 0 0-2.94-1.1c-2.6 0-4.76 2.18-4.76 6.46 0 3.42 1.68 6.35 4.59 6.35 1.65 0 2.5-1.16 2.58-1.25.26-.4.32-.75.3-1.4-.07-1.9-.32-1.95-1.97-2.11v-.8h6"/><path id="3ggwa" d="M130.05 3790.59h134.4V3825h-134.4z"/><path id="3ggwv" d="M254.93 3807.17c.4.08.97.14 1.4.14 1.69 0 2.97-1.32 3.03-2.5.09-1.73-.78-3.22-3.52-3.22-.38 0-.61.02-.9.08v5.5zm0 3.25c.02 3.41.02 3.87 1.81 3.91v.82h-6.21v-.82c1.6-.12 1.77-.38 1.8-1.98l.01-1.91v-5.39c0-1.8-.02-2.42-.08-2.9-.1-.83-.5-.98-1.73-1.08v-.8l6.74.03c3.67 0 4.83 1.74 4.83 3.8 0 1.44-.89 3.3-2.93 3.94l2.63 4.58c.95 1.75 1.46 2.15 2.66 2.32v.5c-.32.03-.63.05-.97.05-2.8 0-3.96-.97-5.14-3.48l-.83-1.75c-.88-1.87-1.18-1.76-2.59-1.78z"/><path id="3ggww" d="M154 3819l-9.8-13.47v9.8h3.92v9.67H130v-9.67h3.67v-15.06H130v-9.68h14.24l9.8 13.6 9.84-13.6h14.24v9.68h-3.68v15.06h3.68v9.67h-18.13v-9.67h3.92v-9.8l-9.9 13.47"/><clipPath id="3ggwu"><use xlink:href="#3ggwa"/></clipPath></defs><g><g transform="translate(-130 -3790)"><g><g><use fill="#fffffe" xlink:href="#3ggwb"/></g><g><use fill="#fffffe" xlink:href="#3ggwc"/></g><g><use fill="#fffffe" xlink:href="#3ggwd"/></g><g><use fill="#fffffe" xlink:href="#3ggwe"/></g><g><use fill="#fffffe" xlink:href="#3ggwf"/></g><g><use fill="#fffffe" xlink:href="#3ggwg"/></g><g><use fill="#fffffe" xlink:href="#3ggwh"/></g><g><use fill="#fffffe" xlink:href="#3ggwi"/></g><g><use fill="#fffffe" xlink:href="#3ggwj"/></g><g><use fill="#fffffe" xlink:href="#3ggwk"/></g><g><use fill="#fffffe" xlink:href="#3ggwl"/></g><g><use fill="#fffffe" xlink:href="#3ggwm"/></g><g><use fill="#fffffe" xlink:href="#3ggwn"/></g><g><use fill="#fffffe" xlink:href="#3ggwo"/></g><g><use fill="#fffffe" xlink:href="#3ggwp"/></g><g><use fill="#fffffe" xlink:href="#3ggwq"/></g><g><use fill="#fffffe" xlink:href="#3ggwr"/></g><g><use fill="#fffffe" xlink:href="#3ggws"/></g><g><use fill="#fffffe" xlink:href="#3ggwt"/></g><g><g/><g clip-path="url(#3ggwu)"><use fill="#fffffe" xlink:href="#3ggwv"/></g><g clip-path="url(#3ggwu)"><use fill="#faca22" xlink:href="#3ggww"/></g></g></g></g></g></svg>